<svg xmlns="http://www.w3.org/2000/svg" viewBox="0 0 576 512"><path d="M201.616 75.56C227.742 63.027 257.021 56 288 56c110.458 0 200 89.543 200 200 0 19.467-2.774 38.252-7.94 56H480c-13.843 0-26.778 3.908-37.754 10.678C451.094 302.238 456 279.692 456 256c0-92.784-75.216-168-168-168-47.466 0-90.335 19.685-120.887 51.337.584-3.693.887-7.48.887-11.337 0-39.764-32.236-72-72-72s-72 32.236-72 72c0 22.58 10.4 42.73 26.644 55.92C43.718 206.754 40 230.961 40 256c0 136.966 111.033 248 248 248 39.242 0 76.41-9.13 109.44-25.398 12.4-6.106 16.045-21.236 9.485-32.576-6.707-11.597-21.162-15.047-32.541-9.584C348.259 448.972 318.979 456 288 456c-110.457 0-200-89.542-200-200 0-19.468 2.775-38.253 7.94-56H96c13.844 0 26.776-3.908 37.753-10.68C124.904 209.762 120 232.308 120 256c0 92.784 75.216 168 168 168 47.466 0 90.336-19.686 120.886-51.338A72.76 72.76 0 00408 384c0 39.763 32.237 72 72 72s72-32.237 72-72c0-22.58-10.4-42.73-26.643-55.92C532.282 305.247 536 281.04 536 256 536 119.033 424.966 8 288 8c-39.241 0-76.409 9.13-109.44 25.397-12.399 6.107-16.045 21.236-9.485 32.576 6.709 11.597 21.16 15.046 32.541 9.587zM120 128c0 13.255-10.745 24-24 24s-24-10.745-24-24 10.745-24 24-24 24 10.745 24 24zm192 128c0 13.255-10.745 24-24 24s-24-10.745-24-24 10.745-24 24-24 24 10.745 24 24zm-24 72c39.763 0 72-32.236 72-72s-32.237-72-72-72c-39.764 0-72 32.236-72 72s32.236 72 72 72zm216 56c0 13.254-10.746 24-24 24s-24-10.746-24-24 10.746-24 24-24 24 10.746 24 24zm-96-128c0 66.275-53.725 120-120 120-66.274 0-120-53.725-120-120 0-66.274 53.726-120 120-120 66.275 0 120 53.726 120 120z"/></svg>
