<svg width="15" height="15" viewBox="0 0 15 15" fill="none" xmlns="http://www.w3.org/2000/svg">
  <path fill-rule="evenodd" clip-rule="evenodd" d="M0.858354 5.40195C1.25218 5.00813 1.47343 4.47398 1.47343 3.91703V3.5733C1.47343 2.4135 2.41363 1.4733 3.57343 1.4733H3.91716C4.47411 1.4733 5.00826 1.25205 5.40208 0.858223L5.64523 0.615075C6.46533 -0.205026 7.79498 -0.205025 8.61508 0.615076L8.85823 0.858224C9.25205 1.25205 9.7862 1.4733 10.3432 1.4733H10.6871C11.8469 1.4733 12.7871 2.4135 12.7871 3.5733V3.91729C12.7871 4.47425 13.0084 5.00839 13.4022 5.40222L13.6452 5.64523C14.4653 6.46533 14.4653 7.79498 13.6452 8.61508L13.4022 8.85809C13.0084 9.25192 12.7871 9.78606 12.7871 10.343V10.687C12.7871 11.8468 11.8469 12.787 10.6871 12.787H10.3432C9.7862 12.787 9.25205 13.0083 8.85823 13.4021L8.61508 13.6452C7.79498 14.4653 6.46533 14.4653 5.64523 13.6452L5.40208 13.4021C5.00826 13.0083 4.47411 12.787 3.91716 12.787H3.57343C2.41363 12.787 1.47343 11.8468 1.47343 10.687V10.3433C1.47343 9.78633 1.25218 9.25218 0.858355 8.85836L0.615076 8.61508C-0.205025 7.79498 -0.205025 6.46533 0.615076 5.64523L0.858354 5.40195ZM8.64521 4.74729C8.76869 4.79236 8.8938 4.85958 9.02056 4.94894C9.26989 5.12472 9.60355 5.16725 9.85244 4.99084C10.1535 4.77745 10.2046 4.34213 9.9102 4.11967C9.69806 3.95938 9.47676 3.83441 9.24631 3.74477C8.83199 3.5744 8.38032 3.48922 7.89129 3.48922C7.33434 3.48922 6.82154 3.57768 6.35289 3.75459C5.89103 3.92496 5.4903 4.17067 5.1507 4.49174C4.81789 4.81281 4.55639 5.20268 4.36621 5.66135C4.17604 6.11347 4.08095 6.618 4.08095 7.17496C4.08095 7.71881 4.17604 8.21352 4.36621 8.65908C4.55639 9.10465 4.81789 9.48796 5.1507 9.80903C5.4903 10.1235 5.89103 10.3693 6.35289 10.5462C6.82154 10.7165 7.33434 10.8017 7.89129 10.8017C8.42107 10.8017 8.92029 10.7034 9.38894 10.5069C9.65415 10.3956 9.89652 10.2466 10.116 10.0598C10.3989 9.81916 10.3253 9.3878 10.019 9.1776C9.73821 8.98483 9.36378 9.05191 9.09619 9.26265C8.98361 9.3513 8.86725 9.42531 8.74709 9.48469C8.47541 9.61574 8.19354 9.68126 7.90148 9.68126C7.52792 9.68126 7.18831 9.61574 6.88267 9.48469C6.58382 9.35364 6.32572 9.17345 6.10838 8.94411C5.89103 8.71478 5.72123 8.44285 5.59897 8.12834C5.48351 7.81382 5.42578 7.46982 5.42578 7.09633C5.42578 6.74905 5.48351 6.42471 5.59897 6.12329C5.72123 5.82188 5.89103 5.55979 6.10838 5.337C6.32572 5.10767 6.58382 4.93075 6.88267 4.80626C7.18831 4.67521 7.52792 4.60969 7.90148 4.60969C8.15279 4.60969 8.4007 4.65555 8.64521 4.74729Z" fill="url(#paint0_linear_128_9411)"/>
  <defs>
    <linearGradient id="paint0_linear_128_9411" x1="0.210241" y1="0.215404" x2="14.04" y2="14.057" gradientUnits="userSpaceOnUse">
      <stop stop-color="#6C4DF6"/>
      <stop offset="1" stop-color="#4C6CEB"/>
    </linearGradient>
  </defs>
</svg>
